<svg xmlns="http://www.w3.org/2000/svg" viewBox="0 0 272.2 190.5"><style>.style0{fill: #00B4CC;}.style1{fill: #FFFFFF;}.style2{fill-rule: evenodd;clip-rule: evenodd;fill: #FFFFFF;}</style><path d="M113.3 20.8C122 11.6 134.3 6 147.8 6c18 0 33.6 10 42 24.9 7.3-3.2 15.3-5 23.7-5 32.4 0 58.7 26.5 58.7 59.2s-26.3 59.2-58.7 59.2c-4 0-7.8-.4-11.6-1.2-7.3 13.1-21.4 22-37.4 22-6.7 0-13.1-1.6-18.8-4.3-7.5 17.5-24.8 29.8-45 29.8-21.1 0-39-13.3-45.9-32-3 .6-6.1 1-9.3 1C20.3 159.4 0 138.9 0 113.5c0-17 9.1-31.8 22.7-39.8-2.8-6.4-4.3-13.5-4.3-21C18.4 23.6 42 0 71.2 0c17.2 0 32.4 8.1 42.1 20.8z" class="style0"/></svg>